<svg width="24" height="23" viewBox="0 0 24 23" fill="none" xmlns="http://www.w3.org/2000/svg">
<path d="M3 5.74996H5M5 5.74996H21M5 5.74996L5 19.1666C5 19.675 5.21071 20.1625 5.58579 20.5219C5.96086 20.8814 6.46957 21.0833 7 21.0833H17C17.5304 21.0833 18.0391 20.8814 18.4142 20.5219C18.7893 20.1625 19 19.675 19 19.1666V5.74996M8 5.74996V3.83329C8 3.32496 8.21071 2.83745 8.58579 2.478C8.96086 2.11856 9.46957 1.91663 10 1.91663H14C14.5304 1.91663 15.0391 2.11856 15.4142 2.478C15.7893 2.83745 16 3.32496 16 3.83329V5.74996M10 10.5416V16.2916M14 10.5416V16.2916" stroke="#CBC1D2" stroke-width="2" stroke-linecap="round" stroke-linejoin="round"/>
</svg>
