<svg width="40" height="40" viewBox="0 0 40 40" fill="none" xmlns="http://www.w3.org/2000/svg">
<path d="M20 36.6666C29.2048 36.6666 36.6667 29.2047 36.6667 20C36.6667 10.7952 29.2048 3.33331 20 3.33331C10.7953 3.33331 3.33334 10.7952 3.33334 20C3.33334 29.2047 10.7953 36.6666 20 36.6666Z" fill="white"/>
<path d="M26.6667 20L20 13.3333L13.3333 20" fill="white"/>
<path d="M26.6667 20L20 13.3333M20 13.3333L13.3333 20M20 13.3333V26.6666M36.6667 20C36.6667 29.2047 29.2048 36.6666 20 36.6666C10.7953 36.6666 3.33334 29.2047 3.33334 20C3.33334 10.7952 10.7953 3.33331 20 3.33331C29.2048 3.33331 36.6667 10.7952 36.6667 20Z" stroke="#897098" stroke-width="1.6" stroke-linecap="round" stroke-linejoin="round"/>
</svg>
